<svg xmlns="http://www.w3.org/2000/svg" width="1024" height="1024" viewBox="0 0 1024 1024">
<rect width="1024" height="1024" rx="225" fill="#FFFFFF"/>
<g transform="translate(512,512) scale(1.13) translate(-459.5,-552.5)">
<path d="M 505.62 830.44 C502.94,832.44 501.52,832.51 459.68,832.75 C416.50,833.00 416.50,833.00 412.59,830.75 C405.12,826.45 404.63,825.03 403.88,805.71 C403.38,792.64 402.71,786.74 401.09,781.21 C399.93,777.20 370.81,694.40 336.39,597.21 C301.97,500.02 270.89,412.17 267.32,402.00 C248.12,347.19 241.48,328.95 238.89,323.79 C233.15,312.40 229.44,309.87 210.50,304.45 C194.73,299.94 189.01,295.03 189.00,285.97 C189.00,280.47 190.81,277.68 196.32,274.74 L 200.50 272.50 L 390.50 272.50 L 394.61 274.70 C402.10,278.71 404.25,288.89 398.83,294.70 C394.52,299.31 388.93,301.22 369.56,304.65 C359.14,306.50 349.02,308.80 347.06,309.76 C342.02,312.22 339.73,317.08 340.45,323.77 C341.03,329.10 343.18,335.42 383.49,450.00 C395.78,484.92 417.15,545.67 430.98,585.00 C444.81,624.33 463.14,676.43 471.72,700.79 C480.30,725.15 487.64,744.73 488.04,744.29 C488.44,743.86 491.93,734.28 495.80,723.00 C499.68,711.72 508.32,686.75 515.02,667.50 C521.72,648.25 529.36,626.20 532.00,618.50 C534.65,610.80 540.63,593.47 545.30,580.00 C568.73,512.45 582.01,474.15 590.02,451.00 C594.87,436.98 604.31,409.75 611.00,390.50 C627.21,343.85 629.00,337.93 629.00,330.94 C629.00,323.79 627.81,320.47 623.69,316.16 C618.27,310.48 612.09,308.09 594.63,304.90 C575.44,301.40 569.75,299.55 565.32,295.38 C562.33,292.58 562.00,291.70 562.00,286.71 C562.00,282.22 562.49,280.57 564.53,278.14 C565.14,277.42 565.65,276.79 566.23,276.25 C570.23,272.50 577.74,272.50 643.51,272.50 L 647.00 272.50 C712.45,272.50 719.79,272.66 722.50,274.15 C727.40,276.84 729.26,279.60 729.77,284.97 C730.64,293.98 726.24,297.65 707.12,303.91 C700.32,306.14 692.84,309.08 690.51,310.44 C680.11,316.53 672.04,329.33 664.00,352.50 C661.70,359.10 656.08,375.30 651.50,388.50 C646.92,401.70 638.15,426.90 632.01,444.50 C625.86,462.10 617.09,487.30 612.51,500.50 C607.92,513.70 599.15,538.90 593.01,556.50 C586.86,574.10 578.09,599.30 573.50,612.50 C568.92,625.70 561.57,646.85 557.18,659.50 C552.78,672.15 542.38,702.03 534.07,725.91 C518.75,769.92 515.03,780.13 513.86,790.61 C513.41,794.63 513.33,798.68 513.12,804.69 C512.42,824.50 512.10,825.60 505.62,830.44 Z" fill="#0F52BA"/>
</g>
</svg>
